<?xml version="1.0" encoding="UTF-8" standalone="no"?>
<!DOCTYPE svg PUBLIC "-//W3C//DTD SVG 1.1//EN"
 "http://www.w3.org/Graphics/SVG/1.1/DTD/svg11.dtd">
<!-- Generated by graphviz version 2.43.0 (0)
 -->
<!-- Title: %3 Pages: 1 -->
<svg width="881pt" height="231pt"
 viewBox="0.00 0.00 881.17 231.00" xmlns="http://www.w3.org/2000/svg" xmlns:xlink="http://www.w3.org/1999/xlink">
<g id="graph0" class="graph" transform="scale(1 1) rotate(0) translate(4 227)">
<title>%3</title>
<polygon fill="#3f3f3f" stroke="transparent" points="-4,4 -4,-227 877.17,-227 877.17,4 -4,4"/>
<text text-anchor="middle" x="436.59" y="-9.2" font-family="Times,serif" font-size="16.00" fill="white">Network Map</text>
<!-- R1 -->
<g id="node1" class="node">
<title>R1</title>
<polygon fill="#006699" stroke="#006699" points="95.67,-99 18.67,-99 18.67,-26 95.67,-26 95.67,-99"/>
<text text-anchor="middle" x="57.17" y="-58.8" font-family="Helvetica,sans-Serif" font-size="14.00" fill="white">R1</text>
</g>
<!-- SW1 -->
<g id="node5" class="node">
<title>SW1</title>
<polygon fill="#006699" stroke="#006699" points="287.17,-223 197.17,-223 197.17,-150 287.17,-150 287.17,-223"/>
<text text-anchor="middle" x="242.17" y="-182.8" font-family="Helvetica,sans-Serif" font-size="14.00" fill="white">SW1</text>
</g>
<!-- R1&#45;&#45;SW1 -->
<g id="edge1" class="edge">
<title>R1&#45;&#45;SW1</title>
<path fill="none" stroke="green" stroke-dasharray="5,2" d="M58,-99.15C59.95,-110.85 64.04,-123.11 72.17,-132 104.01,-166.82 158.25,-179.14 196.89,-183.41"/>
<text text-anchor="middle" x="122.17" y="-120.8" font-family="Courier,monospace" font-size="14.00" fill="white"> &#160;&#160;&#160;&#160;&#160;&#160;&#160;&#160;&#160;&#160;&#160;</text>
<text text-anchor="middle" x="167.89" y="-172.21" font-family="Courier,monospace" font-size="14.00" fill="white">Eth 0/1</text>
<text text-anchor="middle" x="29" y="-102.95" font-family="Courier,monospace" font-size="14.00" fill="white">Eth 0/0</text>
</g>
<!-- R6 -->
<g id="node2" class="node">
<title>R6</title>
<polygon fill="#006699" stroke="#006699" points="833.67,-223 756.67,-223 756.67,-150 833.67,-150 833.67,-223"/>
<text text-anchor="middle" x="795.17" y="-182.8" font-family="Helvetica,sans-Serif" font-size="14.00" fill="white">R6</text>
</g>
<!-- R2 -->
<g id="node3" class="node">
<title>R2</title>
<polygon fill="#006699" stroke="#006699" points="710.67,-99 633.67,-99 633.67,-26 710.67,-26 710.67,-99"/>
<text text-anchor="middle" x="672.17" y="-58.8" font-family="Helvetica,sans-Serif" font-size="14.00" fill="white">R2</text>
</g>
<!-- R2&#45;&#45;R6 -->
<g id="edge4" class="edge">
<title>R2&#45;&#45;R6</title>
<path fill="none" stroke="green" stroke-dasharray="5,2" d="M710.76,-79.66C728.49,-88.6 748.74,-101.14 763.17,-117 771.74,-126.42 778.41,-138.53 783.39,-149.95"/>
<text text-anchor="middle" x="823.17" y="-120.8" font-family="Courier,monospace" font-size="14.00" fill="white"> &#160;&#160;&#160;&#160;&#160;&#160;&#160;&#160;&#160;&#160;&#160;</text>
<text text-anchor="middle" x="754.39" y="-138.75" font-family="Courier,monospace" font-size="14.00" fill="white">Eth 0/1</text>
<text text-anchor="middle" x="739.76" y="-68.46" font-family="Courier,monospace" font-size="14.00" fill="white">Eth 0/2</text>
</g>
<!-- R2&#45;&#45;SW1 -->
<g id="edge2" class="edge">
<title>R2&#45;&#45;SW1</title>
<path fill="none" stroke="green" stroke-dasharray="5,2" d="M633.4,-76.88C607.8,-86.45 573.98,-100.52 546.17,-117 536.92,-122.48 536.97,-127.55 527.17,-132 447.78,-168.12 345.32,-179.85 287.37,-183.66"/>
<text text-anchor="middle" x="596.17" y="-120.8" font-family="Courier,monospace" font-size="14.00" fill="white"> &#160;&#160;&#160;&#160;&#160;&#160;&#160;&#160;&#160;&#160;&#160;</text>
<text text-anchor="middle" x="316.37" y="-172.46" font-family="Courier,monospace" font-size="14.00" fill="white">Eth 0/2</text>
<text text-anchor="middle" x="604.4" y="-65.68" font-family="Courier,monospace" font-size="14.00" fill="white">Eth 0/0</text>
</g>
<!-- R5 -->
<g id="node6" class="node">
<title>R5</title>
<polygon fill="#006699" stroke="#006699" points="587.67,-223 510.67,-223 510.67,-150 587.67,-150 587.67,-223"/>
<text text-anchor="middle" x="549.17" y="-182.8" font-family="Helvetica,sans-Serif" font-size="14.00" fill="white">R5</text>
</g>
<!-- R2&#45;&#45;R5 -->
<g id="edge3" class="edge">
<title>R2&#45;&#45;R5</title>
<path fill="none" stroke="green" stroke-dasharray="5,2" d="M666.26,-99.2C662.99,-110.63 657.95,-122.71 650.17,-132 633.99,-151.32 609.01,-164.64 587.94,-173.15"/>
<text text-anchor="middle" x="709.17" y="-120.8" font-family="Courier,monospace" font-size="14.00" fill="white"> &#160;&#160;&#160;&#160;&#160;&#160;&#160;&#160;&#160;&#160;&#160;</text>
<text text-anchor="middle" x="616.94" y="-161.95" font-family="Courier,monospace" font-size="14.00" fill="white">Eth 0/0</text>
<text text-anchor="middle" x="637.26" y="-103" font-family="Courier,monospace" font-size="14.00" fill="white">Eth 0/1</text>
</g>
<!-- R3 -->
<g id="node4" class="node">
<title>R3</title>
<polygon fill="#006699" stroke="#006699" points="218.67,-99 141.67,-99 141.67,-26 218.67,-26 218.67,-99"/>
<text text-anchor="middle" x="180.17" y="-58.8" font-family="Helvetica,sans-Serif" font-size="14.00" fill="white">R3</text>
</g>
<!-- R3&#45;&#45;SW1 -->
<g id="edge5" class="edge">
<title>R3&#45;&#45;SW1</title>
<path fill="none" stroke="green" stroke-dasharray="5,2" d="M175.23,-99.23C175.13,-110.17 176.53,-121.96 181.17,-132 184.95,-140.18 190.65,-147.62 197.08,-154.17"/>
<text text-anchor="middle" x="231.17" y="-120.8" font-family="Courier,monospace" font-size="14.00" fill="white"> &#160;&#160;&#160;&#160;&#160;&#160;&#160;&#160;&#160;&#160;&#160;</text>
<text text-anchor="middle" x="168.08" y="-142.97" font-family="Courier,monospace" font-size="14.00" fill="white">Eth 0/3</text>
<text text-anchor="middle" x="146.23" y="-103.03" font-family="Courier,monospace" font-size="14.00" fill="white">Eth 0/0</text>
</g>
<!-- R4 -->
<g id="node7" class="node">
<title>R4</title>
<polygon fill="#006699" stroke="#006699" points="402.67,-99 325.67,-99 325.67,-26 402.67,-26 402.67,-99"/>
<text text-anchor="middle" x="364.17" y="-58.8" font-family="Helvetica,sans-Serif" font-size="14.00" fill="white">R4</text>
</g>
<!-- R4&#45;&#45;SW1 -->
<g id="edge6" class="edge">
<title>R4&#45;&#45;SW1</title>
<path fill="none" stroke="green" stroke-dasharray="5,2" d="M325.52,-96.86C318.3,-103.41 310.91,-110.31 304.17,-117 293.7,-127.4 282.75,-139.17 273.01,-149.98"/>
<text text-anchor="middle" x="354.17" y="-120.8" font-family="Courier,monospace" font-size="14.00" fill="white"> &#160;&#160;&#160;&#160;&#160;&#160;&#160;&#160;&#160;&#160;&#160;</text>
<text text-anchor="middle" x="244.01" y="-138.78" font-family="Courier,monospace" font-size="14.00" fill="white">Eth 0/4</text>
<text text-anchor="middle" x="296.52" y="-85.66" font-family="Courier,monospace" font-size="14.00" fill="white">Eth 0/0</text>
</g>
<!-- R4&#45;&#45;R5 -->
<g id="edge7" class="edge">
<title>R4&#45;&#45;R5</title>
<path fill="none" stroke="green" stroke-dasharray="5,2" d="M391.82,-99.05C402.03,-110.6 414.29,-122.8 427.17,-132 452.67,-150.21 485.36,-164.14 510.48,-173.21"/>
<text text-anchor="middle" x="477.17" y="-120.8" font-family="Courier,monospace" font-size="14.00" fill="white"> &#160;&#160;&#160;&#160;&#160;&#160;&#160;&#160;&#160;&#160;&#160;</text>
<text text-anchor="middle" x="481.48" y="-162.01" font-family="Courier,monospace" font-size="14.00" fill="white">Eth 0/1</text>
<text text-anchor="middle" x="362.82" y="-102.85" font-family="Courier,monospace" font-size="14.00" fill="white">Eth 0/1</text>
</g>
</g>
</svg>
